<svg width="200" height="179" viewBox="0 0 200 179" fill="none" xmlns="http://www.w3.org/2000/svg">
<rect width="119.815" height="119.815" rx="10" transform="matrix(0.834623 -0.550822 0.834623 0.550822 0 65.9966)" fill="#FFDA83"/>
<path d="M13.3726 96.676L91.7021 148.371C96.3116 151.413 103.785 151.413 108.395 148.371L186.724 96.676" stroke="#FFFFFF" stroke-width="5" stroke-linecap="round"/>
<path d="M13.3726 121.36L91.7021 173.054C96.3116 176.096 103.785 176.096 108.395 173.054L186.724 121.36" stroke="#FFFFFF" stroke-width="5" stroke-linecap="round"/>
<rect x="64" y="36.9966" width="15.3721" height="12.5294" rx="3" stroke="black" stroke-width="2"/>
<line x1="85.0581" y1="42.261" x2="134.089" y2="42.261" stroke="black" stroke-width="2"/>
<rect x="64" y="59.5256" width="15.3721" height="12.5294" rx="3" stroke="black" stroke-width="2"/>
<line x1="85.0581" y1="64.79" x2="134.089" y2="64.79" stroke="black" stroke-width="2"/>
<rect x="64" y="82.0557" width="15.3721" height="12.5294" rx="3" stroke="black" stroke-width="2"/>
<line x1="85.0581" y1="87.3201" x2="134.089" y2="87.3201" stroke="black" stroke-width="2"/>
</svg>
