<svg width="208" height="200" viewBox="0 0 208 200" fill="none" xmlns="http://www.w3.org/2000/svg">
<path d="M4 61.5344V6.64551C4 5.54094 4.89543 4.64551 6 4.64551H60.8889" stroke="#51F5FF" stroke-width="8" stroke-linecap="round" stroke-linejoin="round"/>
<path opacity="0.9" d="M146.933 5.35669L201.822 5.35669C202.927 5.35669 203.822 6.25212 203.822 7.35669L203.822 62.2456" stroke="#51F5FF" stroke-width="8" stroke-linecap="round" stroke-linejoin="round"/>
<path d="M204 139.046L204 193.935C204 195.039 203.105 195.935 202 195.935L147.111 195.935" stroke="#51F5FF" stroke-width="8" stroke-linecap="round" stroke-linejoin="round"/>
<path d="M60.8889 195.223H6C4.89543 195.223 4 194.328 4 193.223L4 138.335" stroke="#51F5FF" stroke-width="8" stroke-linecap="round" stroke-linejoin="round"/>
<path d="M121.203 111.702C136.843 93.1589 135.93 65.4065 118.462 47.9392C100.031 29.5078 70.1476 29.5078 51.7162 47.9392C33.2848 66.3706 33.2848 96.2539 51.7162 114.685C69.2063 132.175 97.0084 133.069 115.552 117.365L149.961 150.934L155.547 145.207L121.203 111.702Z" stroke="#51F5FF" stroke-width="8"/>
</svg>
