<svg width="170" height="180" viewBox="0 0 170 180" fill="none" xmlns="http://www.w3.org/2000/svg">
<path d="M15 39H155" stroke="#E63946" stroke-width="30" stroke-linecap="round"/>
<path d="M19.2195 88.164C18.5554 73.9154 29.9283 62 44.1924 62H125.406C140.005 62 151.497 74.4552 150.326 89.0062L144.851 157.006C143.806 169.993 132.961 180 119.932 180H47.3619C34.0073 180 23.0108 169.504 22.389 156.164L19.2195 88.164Z" fill="#E63946"/>
<path d="M17 62L19.5281 89H150.281L152 62H17Z" fill="#E63946"/>
<path d="M65 101V141" stroke="white" stroke-width="10" stroke-linecap="round"/>
<path d="M104.5 101V141" stroke="white" stroke-width="10" stroke-linecap="round"/>
<path d="M55 25L55.9786 14.1054C56.4416 8.94998 60.7623 5 65.9385 5H90.5689" stroke="#E63946" stroke-width="10" stroke-linecap="round"/>
<path d="M115 25L114.021 14.1054C113.558 8.94998 109.238 5 104.062 5H79.4311" stroke="#E63946" stroke-width="10" stroke-linecap="round"/>
</svg>
