<svg width="50" height="67" viewBox="0 0 50 67" fill="none" xmlns="http://www.w3.org/2000/svg">
<path d="M46.476 37.9047C48.4222 37.9047 50 39.4822 50 41.4283V42.7618C50 45.4442 47.8253 47.6189 45.143 47.6189H44.6664C39.8412 47.6189 36.4444 45.7777 34.4762 42.0953C31.3016 46.6031 26.5079 48.8571 20.0952 48.8571C15.6879 48.8571 10.2857 52.0339 10.2857 56.4411V61.5239C10.2857 64.3639 7.98315 66.6666 5.14287 66.6666C2.30253 66.6666 0 64.3639 0 61.5239V5.14287C0 2.30254 2.30253 0 5.14287 0C7.98315 0 10.2857 2.30253 10.2857 5.14287V28.1904C10.2857 31.6825 11.2381 34.4127 13.1428 36.3809C15.0476 38.2857 17.619 39.238 20.8571 39.238C24.5397 39.238 27.492 38.127 29.7143 35.9047C31.9365 33.619 33.0476 30.1269 33.0476 25.4285V5.14287C33.0476 2.30254 35.3501 0 38.1904 0C41.0306 0 43.3334 2.30253 43.3334 5.14287V34.7619C43.3334 35.7142 43.619 36.4762 44.1903 37.0476C44.7617 37.619 45.5238 37.9047 46.476 37.9047Z" fill="#e19641"/>
</svg>
