<svg width="665" height="936" viewBox="0 0 665 936" fill="none" xmlns="http://www.w3.org/2000/svg">
<path d="M605.246 530.125C629.962 530.125 650 551.564 650 578.012V596.134C650 632.587 622.382 662.141 588.315 662.141H582.264C520.984 662.141 477.844 637.119 452.847 587.076C412.53 648.336 351.651 678.969 270.209 678.969C214.236 678.969 145.628 722.141 145.628 782.036V851.11C145.628 889.706 116.386 921 80.3145 921C44.2422 921 15 889.706 15 851.11V84.8917C15 46.2916 44.2422 15 80.3145 15C116.386 15 145.628 46.2915 145.628 84.8917V398.109C145.628 445.566 157.723 482.669 181.914 509.417C206.105 535.303 238.762 548.245 279.885 548.245C326.654 548.245 364.149 533.146 392.371 502.946C420.593 471.883 434.704 424.426 434.704 360.574V84.8917C434.704 46.2915 463.947 15 500.019 15C536.089 15 565.334 46.2915 565.334 84.8917V487.414C565.334 500.357 568.962 510.711 576.217 518.477C583.473 526.243 593.153 530.125 605.246 530.125Z" fill="#FFE8BA" stroke="#484646" stroke-opacity="0.8" stroke-width="30"/>
</svg>
