<svg width="206" height="202" viewBox="0 0 206 202" fill="none" xmlns="http://www.w3.org/2000/svg">
<path d="M13 119.567H19.9504C25.4732 119.567 29.9504 124.045 29.9504 129.567V183.043V188.716C29.9504 194.2 34.3958 198.645 39.8794 198.645H58.2482C63.7711 198.645 68.2482 194.168 68.2482 188.645V145.099V141.27C68.2482 135.747 72.7254 131.27 78.2482 131.27H85.6241H115.057H123.496C129.019 131.27 133.496 135.747 133.496 141.27V145.099V188.645C133.496 194.168 137.974 198.645 143.496 198.645H166.475H173.142C178.665 198.645 183.142 194.168 183.142 188.645V183.043V129.496C183.142 124.013 187.587 119.567 193.071 119.567C198.555 119.567 203 115.122 203 109.638V103.142C203 100.49 201.946 97.9464 200.071 96.0711L115.057 11.0567L110.071 6.07107C106.166 2.16582 99.8342 2.16582 95.9289 6.07106L90.9433 11.0567L5.92893 96.0711C4.05357 97.9464 3 100.49 3 103.142V109.567C3 115.09 7.47714 119.567 13 119.567Z" stroke="white" stroke-width="5" stroke-linejoin="round"/>
</svg>
