<svg width="5136" height="4511" viewBox="0 0 5136 4511" fill="none" xmlns="http://www.w3.org/2000/svg">
<path d="M676.973 4380.76C516.611 4378.7 414.648 4204.86 480.818 4058.73C533.646 3942.13 585.212 3816.64 635.514 3682.31C735.237 3410.81 819.188 3117.72 887.368 2803.05C955.662 2483.05 991.915 2154.59 996.203 1817.7C1000.3 1496.86 955.203 1258.33 860.954 1102.02C772.026 945.792 639.342 866.548 462.868 864.289C393.356 863.409 331.761 870.644 278.082 885.995C209.298 900.351 135.292 861.609 120.071 793.008L5.6861 277.464C-16.5861 177.088 36.6977 74.7218 136.812 51.2549C174.037 42.5648 214.083 34.5636 256.943 27.3666C380.202 7.53646 511.328 -1.49768 650.367 0.263298C928.444 3.82353 1171.03 60.4042 1378.21 170.006C1585.47 274.248 1746.37 447.436 1860.95 689.57C1975.6 926.344 2030.26 1250.63 2025.02 1662.35C2023.68 1769.31 2019.81 1862.84 2013.42 1943C2007.14 2017.8 1998.22 2087.21 1986.7 2151.22C1981.53 2205.16 2053.69 2239.76 2088.76 2198.53L3858.4 117.828C3899.25 69.7836 3959.35 42.4884 4022.4 43.2923L4618.44 50.8723C4778.81 52.9395 4880.14 226.319 4808.97 370.03C4748.1 492.915 4684.94 627.208 4619.52 772.872C4498.24 1054.78 4392.74 1360.96 4302.93 1691.41C4213.16 2021.86 4166.11 2355.53 4161.82 2692.37C4158.76 2933.01 4177.71 3123.12 4218.75 3262.7C4265.14 3396.99 4336.12 3494.15 4431.63 3554.22C4527.18 3608.92 4644.48 3637.13 4783.51 3638.93C4847.67 3639.74 4911.91 3635.22 4976.22 3625.34C5053.78 3608.46 5136.13 3667.57 5135.09 3746.93L5128.35 4276.02C5127.24 4363.65 5072.35 4442.63 4986.75 4461.27C4950.23 4469.23 4910.99 4476.28 4869.04 4482.33C4772.49 4502.5 4670.78 4511.92 4563.82 4510.54C4365.98 4508.01 4179.16 4478.88 4003.37 4423.18C3827.62 4367.44 3673.65 4277.25 3541.54 4152.56C3409.44 4027.84 3307.26 3863.42 3234.99 3659.3C3162.79 3449.78 3128.6 3192.64 3132.51 2887.84C3134.34 2743.48 3144.07 2609.87 3161.68 2487.1C3172.86 2406.1 3053.49 2346.03 3001.55 2409.2L1437.13 4311.09C1396.32 4360.74 1335.15 4389.15 1270.91 4388.34L676.973 4380.76Z" fill="url(#paint0_linear_14_5)"/>
<defs>
<linearGradient id="paint0_linear_14_5" x1="2567.88" y1="0.0478516" x2="2567.88" y2="4510.67" gradientUnits="userSpaceOnUse">
<stop stop-color="#C39EFF"/>
<stop offset="1" stop-color="#9F69F9"/>
</linearGradient>
</defs>
</svg>
