<svg width="200" height="200" viewBox="0 0 200 200" fill="none" xmlns="http://www.w3.org/2000/svg">
<path d="M26.344 194.24C20.0974 194.148 16.1257 186.44 18.7032 179.961C20.761 174.791 22.7696 169.227 24.729 163.271C28.6135 151.232 31.8836 138.237 34.5394 124.284C37.1997 110.096 38.6118 95.5319 38.7788 80.5943C38.9384 66.3683 37.1818 55.7919 33.5105 48.8612C30.0465 41.9341 24.8781 38.4204 18.004 38.3202C15.2963 38.2812 12.897 38.602 10.8061 39.2827C8.12678 39.9192 5.24404 38.2014 4.65114 35.1597L0.195545 12.3006C-0.672017 7.84992 1.40353 3.31102 5.30325 2.27051C6.75327 1.88519 8.31317 1.53042 9.98268 1.21131C14.7839 0.332043 19.8917 -0.0685285 25.3076 0.00955287C36.1394 0.167413 45.5888 2.67619 53.659 7.5359C61.7324 12.158 67.9999 19.8371 72.4631 30.5732C76.929 41.0717 79.0581 55.4505 78.854 73.7061C78.8018 78.4487 78.6511 82.5958 78.4022 86.15C78.1576 89.4666 77.8101 92.5443 77.3614 95.3824C77.16 97.7741 79.9708 99.3083 81.3369 97.4802L150.269 5.22234C151.86 3.09207 154.201 1.8818 156.657 1.91745L179.875 2.25354C186.122 2.3452 190.069 10.0328 187.296 16.4049C184.925 21.8536 182.465 27.8081 179.917 34.2668C175.193 46.7666 171.083 60.3425 167.585 74.9946C164.088 89.6467 162.255 104.442 162.088 119.377C161.969 130.047 162.707 138.476 164.306 144.665C166.113 150.62 168.878 154.928 172.598 157.591C176.32 160.017 180.889 161.267 186.305 161.347C188.804 161.383 191.306 161.183 193.811 160.745C196.832 159.996 200.04 162.617 200 166.136L199.737 189.596C199.694 193.481 197.556 196.983 194.221 197.81C192.799 198.162 191.27 198.475 189.636 198.743C185.875 199.638 181.913 200.055 177.747 199.994C170.041 199.882 162.764 198.59 155.916 196.121C149.07 193.649 143.073 189.65 137.927 184.121C132.781 178.591 128.801 171.301 125.986 162.25C123.173 152.96 121.841 141.559 121.994 128.044C122.065 121.643 122.444 115.719 123.13 110.275C123.565 106.684 118.916 104.02 116.893 106.821L55.9541 191.151C54.3645 193.352 51.9817 194.612 49.4794 194.576L26.344 194.24Z" fill="url(#paint0_linear_37_2916)"/>
<defs>
<linearGradient id="paint0_linear_37_2916" x1="99.9999" y1="3.35177e-08" x2="99.9999" y2="200" gradientUnits="userSpaceOnUse">
<stop stop-color="#FFC39E"/>
<stop offset="1" stop-color="#9F69F9"/>
</linearGradient>
</defs>
</svg>
