<svg width="38" height="39" viewBox="0 0 38 39" fill="none" xmlns="http://www.w3.org/2000/svg"><ellipse cx="16" cy="23" rx="9" ry="11" fill="#313131"></ellipse><path d="M22.7115 0.55176C26.1758 0.550106 29.536 1.7362 32.2316 3.91223C34.9272 6.08827 36.7953 9.12268 37.5243 12.5094C38.2533 15.8961 37.7992 19.4304 36.2377 22.5229C34.6762 25.6153 32.1017 28.0789 28.9436 29.5028C27.9341 31.7346 26.3983 33.6882 24.468 35.1962C22.5377 36.7041 20.2705 37.7213 17.8607 38.1606C15.4509 38.5998 12.9706 38.4481 10.6324 37.7182C8.29414 36.9884 6.16783 35.7023 4.43579 33.9703C2.70375 32.2383 1.41768 30.112 0.687854 27.7737C-0.0419667 25.4355 -0.19375 22.9552 0.245522 20.5454C0.684795 18.1356 1.70201 15.8684 3.20994 13.9381C4.71786 12.0078 6.67149 10.472 8.90328 9.46254C10.1038 6.80633 12.045 4.55281 14.4942 2.97228C16.9434 1.39175 19.7966 0.551309 22.7115 0.55176ZM17.0322 13.8034H13.246V15.6965C12.0157 15.6935 10.8326 16.1697 9.94748 17.0242C9.06233 17.8787 8.54471 19.0443 8.50434 20.2739C8.46396 21.5035 8.90401 22.7006 9.7312 23.6113C10.5584 24.522 11.7077 25.0748 12.9356 25.1525L13.246 25.162H17.0322L17.2026 25.1771C17.4208 25.2166 17.6183 25.3315 17.7604 25.5017C17.9026 25.672 17.9805 25.8867 17.9805 26.1085C17.9805 26.3303 17.9026 26.545 17.7604 26.7153C17.6183 26.8855 17.4208 27.0004 17.2026 27.0399L17.0322 27.055H9.45985V30.8412H13.246V32.7343H17.0322V30.8412C18.2625 30.8442 19.4456 30.368 20.3308 29.5135C21.2159 28.659 21.7335 27.4935 21.7739 26.2638C21.8143 25.0342 21.3742 23.8372 20.547 22.9265C19.7198 22.0157 18.5705 21.463 17.3427 21.3852L17.0322 21.3758H13.246L13.0757 21.3606C12.8574 21.3211 12.66 21.2062 12.5178 21.036C12.3756 20.8658 12.2978 20.651 12.2978 20.4292C12.2978 20.2074 12.3756 19.9927 12.5178 19.8225C12.66 19.6522 12.8574 19.5373 13.0757 19.4978L13.246 19.4827H20.8184V15.6965H17.0322V13.8034ZM22.7115 4.33794C21.1071 4.3358 19.5206 4.6744 18.0569 5.33135C16.5932 5.9883 15.2857 6.94861 14.221 8.14874C16.3607 8.01884 18.5036 8.34466 20.5079 9.10465C22.5123 9.86463 24.3326 11.0415 25.8482 12.5573C27.3639 14.0732 28.5405 15.8936 29.3003 17.898C30.06 19.9025 30.3856 22.0454 30.2555 24.1851C31.9767 22.6548 33.192 20.6374 33.7403 18.4004C34.2886 16.1635 34.1439 13.8127 33.3254 11.6599C32.5069 9.50708 31.0533 7.65396 29.1573 6.34629C27.2614 5.03862 25.0128 4.33821 22.7096 4.33794H22.7115Z" fill="#313131"></path><path d="M10.488 29.6817C10.0691 29.6763 9.80275 29.2222 9.9756 28.8405C10.1136 28.5359 10.2483 28.2081 10.3797 27.8572C10.6402 27.148 10.8595 26.3824 11.0376 25.5604C11.216 24.7245 11.3107 23.8665 11.3219 22.9865C11.3326 22.1484 11.2148 21.5253 10.9686 21.117C10.7363 20.7089 10.3897 20.5019 9.92871 20.496C9.74713 20.4937 9.58623 20.5126 9.44601 20.5527V20.5527C9.26633 20.5902 9.07301 20.489 9.03325 20.3098L8.73445 18.9631C8.67627 18.7009 8.81546 18.4335 9.07698 18.3722C9.17422 18.3495 9.27883 18.3286 9.39079 18.3098C9.71277 18.258 10.0553 18.2344 10.4185 18.239C11.1449 18.2483 11.7786 18.3961 12.3198 18.6824C12.8612 18.9547 13.2815 19.4071 13.5808 20.0396C13.8803 20.6581 14.0231 21.5052 14.0094 22.5807C14.0059 22.8601 13.9958 23.1044 13.9791 23.3138C13.9627 23.5092 13.9394 23.6905 13.9093 23.8577V23.8577C13.8958 23.9986 14.0843 24.089 14.1759 23.9813L18.7986 18.5461C18.9053 18.4206 19.0623 18.3493 19.227 18.3514L20.784 18.3712C21.2029 18.3766 21.4676 18.8295 21.2817 19.2049C21.1227 19.5259 20.9577 19.8767 20.7868 20.2572C20.47 20.9936 20.1944 21.7934 19.9598 22.6566C19.7253 23.5198 19.6024 24.3914 19.5912 25.2713C19.5832 25.8999 19.6327 26.3965 19.7399 26.7611C19.8611 27.1119 20.0465 27.3657 20.296 27.5226C20.5456 27.6655 20.852 27.7392 21.2152 27.7439C21.3828 27.746 21.5506 27.7342 21.7186 27.7084V27.7084C21.9212 27.6643 22.1363 27.8187 22.1336 28.026L22.116 29.4081C22.1131 29.637 21.9697 29.8433 21.7461 29.892C21.6507 29.9128 21.5482 29.9312 21.4386 29.947C21.1864 29.9997 20.9207 30.0243 20.6413 30.0207C20.1245 30.0141 19.6365 29.938 19.1773 29.7925C18.7182 29.6469 18.316 29.4113 17.9709 29.0856C17.6258 28.7598 17.3589 28.3303 17.1701 27.7971C16.9815 27.2498 16.8922 26.5781 16.9024 25.7819C16.9072 25.4048 16.9326 25.0558 16.9786 24.7351V24.7351C17.0078 24.5235 16.696 24.3666 16.5603 24.5316L12.4737 29.4997C12.3671 29.6294 12.2073 29.7036 12.0395 29.7015L10.488 29.6817Z" fill="#fd9801"></path></svg>